
<svg version="1.1" viewBox="0 0 80.433 80.433" xml:space="preserve" xmlns="http://www.w3.org/2000/svg">
    <g transform="translate(-55.235 -136.49)">
        <path d="m55.884 216.28c-0.42543-0.42543-0.64943-0.94866-0.64943-1.517 0-0.79562 1.5404-2.4085 18.584-19.459l18.584-18.591-18.584-18.591c-17.044-17.05-18.584-18.663-18.584-19.459 0-1.1643 1.0021-2.1664 2.1664-2.1664 0.79562 0 2.4085 1.5404 19.459 18.584l18.591 18.584 18.591-18.584c17.05-17.044 18.663-18.584 19.459-18.584 1.1643 0 2.1664 1.0021 2.1664 2.1664 0 0.79562-1.5404 2.4085-18.584 19.459l-18.584 18.591 18.584 18.591c17.044 17.05 18.584 18.663 18.584 19.459 0 1.1643-1.0021 2.1664-2.1664 2.1664-0.79562 0-2.4085-1.5404-19.459-18.584l-18.591-18.584-18.591 18.584c-17.05 17.044-18.663 18.584-19.459 18.584-0.56829 0-1.0915-0.224-1.5169-0.64943z" stroke-width=".26458"/>
    </g>
</svg>